# xmcd
#
# Track frame offsets:
#	150
#	17037
#	32090
#	48162
#	64130
#	81232
#	94795
#	110750
#	124952
#	140197
#	161345
#
# Disc length: 2383 seconds
# Revision: 11
# Processed by: cddbd v1.5.2PL0 Copyright (c) Steve Scherf et al.
# Submitted via: dBpowerAMP V12.0
#
DISCID=96094d0b
DTITLE=Lee Ann Womack - Lee Ann Womack
DYEAR=1997
DGENRE=Country
TTITLE0=Never Again, Again
TTITLE1=A Man with 18 Wheels
TTITLE2=You've Got to Talk to Me
TTITLE3=The Fool
TTITLE4=Am I The Only Thing That You've Done Wrong
TTITLE5=Buckaroo
TTITLE6=Make Memories with Me
TTITLE7=Trouble's Here
TTITLE8=Do You Feel for Me
TTITLE9=Montgomery to Memphis
TTITLE10=Get up in Jesus' Name
EXTD=
EXTT0=
EXTT1=
EXTT2=
EXTT3=
EXTT4=
EXTT5=
EXTT6=
EXTT7=
EXTT8=
EXTT9=
EXTT10=
PLAYORDER=
